<svg width="56" height="19" viewBox="0 0 56 19" fill="none" xmlns="http://www.w3.org/2000/svg">
<path d="M14.0071 6.01953H11.0923C11.1013 5.63269 11.0518 5.29084 10.9439 4.99396C10.8359 4.69259 10.674 4.4362 10.4581 4.22479C10.2467 4.01338 9.98804 3.85369 9.68217 3.74574C9.3763 3.63329 9.0322 3.57706 8.64986 3.57706C7.91217 3.57706 7.2352 3.76148 6.61896 4.13033C6.00272 4.49917 5.48319 5.03445 5.06037 5.73615C4.63755 6.43336 4.34517 7.27675 4.18324 8.26634C4.02581 9.21993 4.0348 10.0183 4.21023 10.6616C4.38565 11.3048 4.69602 11.7906 5.14134 12.119C5.59115 12.4428 6.15116 12.6048 6.82138 12.6048C7.2352 12.6048 7.62879 12.553 8.00213 12.4496C8.37547 12.3416 8.71508 12.1887 9.02095 11.9908C9.33132 11.7884 9.60121 11.5432 9.83061 11.2553C10.0645 10.9674 10.2467 10.6413 10.3771 10.277H13.3121C13.1277 10.9112 12.8398 11.523 12.4485 12.1122C12.0617 12.7015 11.5826 13.2277 11.0114 13.6911C10.4401 14.1499 9.79013 14.5142 9.06143 14.7841C8.33274 15.054 7.53433 15.1889 6.66619 15.1889C5.41122 15.1889 4.33393 14.901 3.4343 14.3253C2.53918 13.7495 1.8937 12.9196 1.49787 11.8356C1.10204 10.7515 1.02782 9.44484 1.27521 7.91548C1.52261 6.43561 2.00616 5.18063 2.72585 4.15057C3.45005 3.116 4.32943 2.33108 5.36399 1.79581C6.40305 1.26053 7.51409 0.992897 8.69709 0.992897C9.52024 0.992897 10.2647 1.10535 10.9304 1.33026C11.5961 1.55516 12.1629 1.88352 12.6307 2.31534C13.103 2.74266 13.4583 3.26669 13.6967 3.88743C13.9351 4.50817 14.0386 5.21887 14.0071 6.01953ZM18.5519 9.00852L17.5533 15H14.6857L16.9798 1.18182H19.7663L18.9027 6.46484H19.0174C19.3503 5.8531 19.8068 5.37405 20.3871 5.0277C20.9673 4.67685 21.6533 4.50142 22.445 4.50142C23.1647 4.50142 23.7652 4.65885 24.2465 4.97372C24.7323 5.28409 25.0764 5.73165 25.2788 6.31641C25.4812 6.89666 25.5149 7.59162 25.38 8.40128L24.2734 15H21.4059L22.418 8.91406C22.5214 8.27533 22.4382 7.77829 22.1683 7.42294C21.9029 7.06759 21.4801 6.88991 20.8999 6.88991C20.5085 6.88991 20.1487 6.97313 19.8203 7.13956C19.492 7.30599 19.2153 7.54889 18.9904 7.86825C18.77 8.18312 18.6238 8.56321 18.5519 9.00852ZM26.6169 15L28.3442 4.63636H31.2185L29.4912 15H26.6169ZM30.0782 3.28693C29.6509 3.28693 29.2978 3.14524 29.0189 2.86186C28.7445 2.57398 28.6321 2.23213 28.6816 1.83629C28.731 1.43146 28.9245 1.08961 29.2618 0.810724C29.5992 0.527343 29.9815 0.385652 30.4088 0.385652C30.8362 0.385652 31.1848 0.527343 31.4546 0.810724C31.7245 1.08961 31.837 1.43146 31.792 1.83629C31.747 2.23213 31.5559 2.57398 31.2185 2.86186C30.8856 3.14524 30.5055 3.28693 30.0782 3.28693ZM31.8887 15L33.616 4.63636H36.4025L36.0989 6.4446H36.2069C36.5037 5.80137 36.9018 5.31558 37.4011 4.98722C37.9049 4.65436 38.4469 4.48793 39.0272 4.48793C39.1711 4.48793 39.3218 4.49692 39.4792 4.51491C39.6412 4.52841 39.7851 4.5509 39.9111 4.58239L39.4792 7.13956C39.3533 7.09458 39.1734 7.05859 38.9395 7.0316C38.7101 7.00012 38.4919 6.98438 38.285 6.98438C37.8667 6.98438 37.4776 7.07659 37.1177 7.26101C36.7579 7.44093 36.4543 7.69283 36.2069 8.01669C35.964 8.34055 35.8043 8.7139 35.7278 9.13672L34.763 15H31.8887ZM39.1306 18.8864L41.5191 4.63636H44.3529L44.0628 6.37713H44.191C44.3619 6.09825 44.5891 5.81487 44.8725 5.52699C45.1603 5.23461 45.5179 4.99171 45.9453 4.7983C46.3726 4.60038 46.8741 4.50142 47.4499 4.50142C48.21 4.50142 48.8735 4.69934 49.4403 5.09517C50.007 5.48651 50.4164 6.07801 50.6683 6.86967C50.9247 7.65684 50.9539 8.64418 50.756 9.83168C50.5671 10.9877 50.2185 11.9638 49.7102 12.7599C49.2064 13.5516 48.6014 14.1521 47.8952 14.5614C47.1935 14.9663 46.449 15.1687 45.6619 15.1687C45.1041 15.1687 44.6453 15.0765 44.2855 14.892C43.9301 14.7076 43.6535 14.476 43.4556 14.1971C43.2576 13.9137 43.1182 13.6281 43.0372 13.3402H42.9293L42.0117 18.8864H39.1306ZM43.469 9.81818C43.3701 10.4344 43.3656 10.9719 43.4556 11.4308C43.55 11.8896 43.7389 12.2472 44.0223 12.5036C44.3057 12.7554 44.679 12.8814 45.1423 12.8814C45.6101 12.8814 46.0262 12.7532 46.3906 12.4968C46.7549 12.2359 47.0585 11.8761 47.3014 11.4173C47.5443 10.954 47.7175 10.4209 47.821 9.81818C47.9154 9.21993 47.9177 8.69365 47.8277 8.23935C47.7377 7.78504 47.5533 7.42969 47.2744 7.17329C46.9956 6.9169 46.6177 6.78871 46.1409 6.78871C45.6776 6.78871 45.2615 6.9124 44.8927 7.1598C44.5283 7.4072 44.2247 7.75805 43.9818 8.21236C43.7389 8.66667 43.568 9.20194 43.469 9.81818ZM53.7033 15.1754C53.249 15.1754 52.8757 15.018 52.5833 14.7031C52.2954 14.3883 52.165 14.0059 52.192 13.5561C52.2235 13.1108 52.4101 12.7352 52.752 12.4293C53.0983 12.119 53.4964 11.9638 53.9462 11.9638C54.3781 11.9638 54.7424 12.119 55.0393 12.4293C55.3361 12.7397 55.4666 13.1153 55.4306 13.5561C55.4081 13.853 55.3114 14.1251 55.1405 14.3725C54.9741 14.6154 54.7626 14.8111 54.5062 14.9595C54.2499 15.1035 53.9822 15.1754 53.7033 15.1754Z" fill="#3180F5"/>
</svg>
